<?xml version="1.0" encoding="utf-8"?>
<!-- Generator: Adobe Illustrator 23.0.4, SVG Export Plug-In . SVG Version: 6.00 Build 0)  -->
<svg version="1.1" id="图层_1" xmlns="http://www.w3.org/2000/svg" xmlns:xlink="http://www.w3.org/1999/xlink" x="0px" y="0px"
	 viewBox="0 0 1026.6 177.4" style="enable-background:new 0 0 1026.6 177.4;" xml:space="preserve">
<style type="text/css">
	.st0{fill:#E62117;}
	.st1{fill:#FFFFFF;}
</style>
<path class="st0" d="M0,88.7c0,49,39.7,88.7,88.7,88.7s88.7-39.7,88.7-88.7c0-49-39.7-88.7-88.7-88.7C39.7,0,0,39.7,0,88.7
	C0,88.7,0,88.7,0,88.7z"/>
<path class="st1" d="M617.9,16L617.9,16c6.1,0,9.1,3,9.1,9.1V140c0,6.1-3,9.1-9.1,9.1h-0.1c-6.1,0-9.1-3-9.1-9.1V25.1
	C608.9,19,611.9,16,617.9,16z"/>
<path class="st1" d="M260.2,55.6c-27.6,0-49.9,21-49.9,46.8s22.3,46.8,49.9,46.8c11.4,0.1,22.5-3.6,31.6-10.5v0.8
	c-0.1,5,3.7,9.3,8.7,9.7c5,0.2,9.3-3.7,9.5-8.7c0-0.1,0-0.2,0-0.4v-37.6C310.1,76.5,287.7,55.6,260.2,55.6L260.2,55.6z M260.2,132
	c-17.6,0-31.7-13.3-31.7-29.7s14.1-29.7,31.7-29.7c17.6,0,31.7,13.3,31.7,29.7S277.6,132,260.2,132z M440.8,69.7
	c-3.2-4-8.9-4.6-12.9-1.5l-66.4,52.5h-0.2V25.2c0-5.1-4.1-9.2-9.2-9.2c0,0,0,0,0,0c-5.1,0-9.2,4.1-9.2,9.2v114.1
	c-0.1,0.8,0,1.5,0.2,2.2v0.3c0.1,0.3,0.2,0.6,0.3,1c0.1,0.3,0.2,0.6,0.4,1l0.2,0.3c0.5,1.1,1.3,2,2.2,2.8l0.2,0.2
	c0.3,0.3,0.7,0.5,1,0.7l0.7,0.4l0.7,0.3l1.2,0.4h0.3c1.2,0.2,2.4,0.2,3.6,0h0.3c0.3,0,0.6-0.2,1-0.3l1-0.4l0.3-0.2
	c0.7-0.3,1.3-0.8,1.9-1.3l41.9-33.2l25,31.5c2.8,3.7,7.9,4.9,12.1,2.8c4.6-2.4,6.3-8.1,3.9-12.7c-0.3-0.5-0.6-1-0.9-1.4l-25.3-31.9
	l24.5-19.3C443.3,79.4,443.9,73.6,440.8,69.7z M891.8,69.7c-3.1-4-8.9-4.7-12.9-1.5c0,0,0,0,0,0l-66.3,52.6h-0.2V25.3
	c0-5.1-4.1-9.2-9.2-9.2c-5.1,0-9.2,4.1-9.2,9.2v114.1c0,0.7,0,1.5,0.2,2.2c0,0.1,0,0.2,0,0.3c0,0.3,0.2,0.6,0.3,1
	c0.1,0.3,0.2,0.6,0.4,1l0.2,0.3c0.5,1.1,1.3,2,2.2,2.8l0.3,0.2c0.3,0.3,0.7,0.5,1,0.7l0.7,0.4l0.7,0.3l1.2,0.4h0.3
	c1.2,0.2,2.4,0.2,3.6,0h0.3c0.3,0,0.6-0.2,1-0.3l0.9-0.4l0.3-0.2c0.7-0.3,1.3-0.8,1.9-1.3l41.8-33.2h0.1l25,31.5
	c2.8,3.7,7.9,4.9,12.1,2.9c4.6-2.4,6.3-8.1,3.9-12.7c-0.3-0.5-0.6-1-0.9-1.4L866,101.9l24.3-19.3C894.3,79.4,895,73.7,891.8,69.7
	C891.8,69.7,891.8,69.7,891.8,69.7L891.8,69.7z M710.2,55.6c-27.6,0-49.9,21-49.9,46.8s22.3,46.8,49.9,46.8
	c11.4,0.1,22.5-3.6,31.6-10.5h0.2v0.8c-0.1,5,3.7,9.3,8.7,9.7c5,0.2,9.3-3.7,9.5-8.7c0-0.1,0-0.3,0-0.4v-37.6
	C760.1,76.5,737.9,55.6,710.2,55.6L710.2,55.6z M710.2,132c-17.5,0-31.7-13.3-31.7-29.7s14.2-29.7,31.7-29.7S742,86,742,102.3
	S727.7,132,710.2,132L710.2,132z M564.6,55.8c-4.3,0.9-7.4,4.8-7.3,9.2v26.8c0,6.2-0.6,12.4-1.8,18.6c0,0-1.2,13.3-18.2,19.9
	c-2.7,1-5.6,1.6-8.5,1.8h-6c-2.9-0.2-5.7-0.9-8.5-1.8c-17.1-6.5-18.1-19.9-18.1-19.9c-1.2-6.1-1.9-12.3-1.8-18.6V65.3
	c0.1-5-3.7-9.3-8.7-9.7c-5-0.2-9.3,3.6-9.5,8.7c0,0.1,0,0.3,0,0.4V106c0,16.2,10.3,30.3,25.6,37.7c1.7,0.8,3.4,1.6,5.2,2.2l0.5,0.2
	l2.2,0.7l0.7,0.2l2.5,0.6h0.3l2.8,0.6h0.7l2.2,0.3h1l2.1,0.2h7.7l2.1-0.2h1l2.2-0.3h0.6l2.9-0.6h0.3l2.6-0.6l0.6-0.2l2.2-0.7
	l0.5-0.2c1.8-0.6,3.5-1.4,5.2-2.2c15.3-7.4,25.6-21.5,25.6-37.7v-1.1V64.7c0-5-4.1-9.1-9.1-9.1C565.7,55.6,565.2,55.7,564.6,55.8
	L564.6,55.8z M1026.6,64.7c0-5-4.1-9.1-9.1-9.1c-0.6,0-1.2,0.1-1.8,0.2c-4.3,1-7.3,4.8-7.3,9.2v26.8c0,6.2-0.6,12.4-1.8,18.6
	c0,0-1.1,13.3-18.2,19.9c-2.7,1-5.6,1.6-8.5,1.8h-6c-2.9-0.2-5.7-0.9-8.5-1.8c-17.1-6.5-18.1-19.9-18.1-19.9
	c-1.2-6.1-1.9-12.3-1.8-18.6V65.3c0.1-5.1-3.8-9.4-8.9-9.7c-5-0.2-9.3,3.6-9.5,8.7c0,0.1,0,0.3,0,0.4V106
	c0,16.2,10.3,30.3,25.6,37.7c1.7,0.8,3.4,1.6,5.2,2.2l0.6,0.2l2.2,0.7l0.7,0.2l2.5,0.6h0.3l2.8,0.6h0.7l2.2,0.3h1l2,0.2h7.7l2-0.2h1
	l2.2-0.3h0.6l2.9-0.6h0.3l2.5-0.6l0.7-0.2l2.2-0.7l0.5-0.2c1.8-0.6,3.6-1.4,5.3-2.2c15.3-7.4,25.6-21.5,25.6-37.7v-1.1v-0.3
	L1026.6,64.7z M108.4,112.2V99.6c0.1-3.8-0.6-7.6-1.8-11.2c-3.1-8.9-9.4-16.3-17.8-20.6c-9.6-5.4-21-6.7-31.7-3.8
	c-9.6,2.2-17.9,8-23.4,16.2c-5.5,7.9-7.3,17.7-5,27c2,8.7,7.3,16.3,14.7,21.3c7.9,5.7,17.6,8.4,27.3,7.7c6.5-0.3,12.8-2.2,18.5-5.4
	c0.4-0.2,0.5-0.1,0.6,0.2c2.6,4.8,8.5,6.6,13.3,4.1c3.3-1.7,5.3-5.2,5.2-8.9V112.2z M80.3,115.3c-3.6,2.5-7.8,3.9-12.2,3.8
	c-8.6,0.1-16.4-5.3-19.5-13.3c-2.7-7.8-0.2-16.4,6.2-21.5c7.8-6.3,19-6.2,26.7,0.2c8.2,6.7,9.5,18.8,2.8,27.1
	C83.2,113,81.8,114.2,80.3,115.3z M139.5,51.1c0-5.4-4.4-9.9-9.9-9.9s-9.9,4.4-9.9,9.9v75.2c0,0.5,0,1,0,1.4
	c0.6,4.7,4.5,8.3,9.2,8.5h1.1c4.7-0.3,8.6-3.8,9.2-8.5c0-0.5,0-1,0-1.4L139.5,51.1z"/>
</svg>
