<?xml version="1.0" encoding="utf-8"?>
<!-- Generator: Adobe Illustrator 23.0.4, SVG Export Plug-In . SVG Version: 6.00 Build 0)  -->
<svg version="1.1" id="图层_1" xmlns="http://www.w3.org/2000/svg" xmlns:xlink="http://www.w3.org/1999/xlink" x="0px" y="0px"
	 viewBox="0 0 113.6 113.6" style="enable-background:new 0 0 113.6 113.6;" xml:space="preserve">
<style type="text/css">
	.st0{fill:#E62117;}
	.st1{fill:#FFFFFF;}
</style>
<title>al logo</title>
<circle class="st0" cx="56.9" cy="56.8" r="56.3"/>
<path class="st1" d="M69.4,71.7v-8c0-2.4-0.4-4.8-1.2-7.1c-1.9-5.6-6-10.3-11.3-13.1c-6.1-3.4-13.3-4.3-20.1-2.4
	c-6.1,1.4-11.4,5.1-14.8,10.3c-3.5,5-4.6,11.2-3.2,17.1c1.3,5.5,4.6,10.4,9.3,13.5c5,3.6,11.1,5.3,17.3,4.9
	c4.1-0.2,8.2-1.4,11.8-3.4c0.2-0.1,0.3-0.1,0.4,0.1c1.6,3,5.4,4.2,8.5,2.6c2.1-1.1,3.4-3.3,3.3-5.7V71.7z M51.6,73.7
	c-2.3,1.6-5,2.4-7.7,2.4c-5.5,0-10.4-3.3-12.4-8.5c-1.7-4.9-0.2-10.4,3.9-13.7c5-4,12-3.9,17,0.1c5.2,4.3,6,12,1.8,17.2
	C53.4,72.2,52.5,73,51.6,73.7z"/>
<path class="st1" d="M89.1,32.9c0-3.5-2.8-6.3-6.3-6.3c-3.5,0-6.3,2.8-6.3,6.3c0,0,0,0,0,0c0,15.9,0,31.8,0,47.7c0,0.3,0,0.6,0,0.9
	c0.4,3,2.9,5.2,5.9,5.4h0.7c3-0.2,5.5-2.4,5.9-5.4c0-0.3,0-0.6,0-0.9L89.1,32.9z"/>
</svg>
